<?xml version="1.0" encoding="utf-8"?>
<svg xmlns="http://www.w3.org/2000/svg" xmlns:svg="http://www.w3.org/2000/svg" version="1.1" viewBox="0 0 1400 340">
	<title>The titlepage for the Standard Ebooks edition of Wuthering Heights, by Emily Brontë</title>
	<g aria-label="WUTHERING HEIGHTS">
		<path d="m 202.4554,130 h 19.46199 l 21.9883,-77.192984 h -19.46198 l -13.19299,52.959064 h -0.46783 L 196.7478,52.807016 h -13.28655 l -14.03509,52.959064 h -0.46784 L 155.76534,52.807016 H 136.20979 L 158.19809,130 h 19.55556 l 12.35087,-43.321638 z"/>
		<path d="m 312.44663,52.807016 h -17.59065 v 44.63158 c 0,12.912284 -3.92982,16.654974 -12.53801,16.654974 -8.60818,0 -12.53801,-3.74269 -12.53801,-16.654974 v -44.63158 h -17.59064 v 49.777774 c 0,19.08772 10.47953,28.81872 30.12865,28.81872 19.64913,0 30.12866,-9.731 30.12866,-28.81872 z"/>
		<path d="m 318.31798,68.245613 h 18.33918 V 130 H 354.2478 V 68.245613 h 18.33919 V 52.807016 h -54.26901 z"/>
		<path d="m 401.51242,99.029239 h 24.88889 V 130 h 17.59064 V 52.807016 H 426.40131 V 83.590642 H 401.51242 V 52.807016 H 383.92177 V 130 h 17.59065 z"/>
		<path d="M 504.35744,52.807016 H 460.1937 V 130 h 44.16374 v -15.4386 h -26.5731 V 99.029239 h 25.4503 V 83.590642 h -25.4503 V 68.245613 h 26.5731 z"/>
		<path d="M 519.47004,52.807016 V 130 h 17.59064 V 99.497075 L 560.63963,130 H 583.0022 L 556.4291,98.093567 c 9.45029,-2.994152 15.81287,-10.760234 15.81287,-22.362574 0,-15.157895 -10.8538,-22.923977 -25.16959,-22.923977 z m 17.59064,34.245615 V 66.842104 h 2.05848 c 6.64327,0 14.59649,0.467836 14.59649,10.105263 0,9.637428 -7.95322,10.105264 -14.59649,10.105264 z"/>
		<path d="M 609.12938,52.807016 H 591.53873 V 130 h 17.59065 z"/>
		<path d="m 643.00364,82.093566 h 0.18714 L 673.88084,130 h 17.59064 V 52.807016 H 673.88084 V 100.71345 H 673.6937 L 643.00364,52.807016 H 625.413 V 130 h 17.59064 z"/>
		<path d="m 777.51684,86.771929 h -35.64912 v 13.567251 h 17.77778 c 0,9.45029 -8.32749,14.87719 -16.74854,14.87719 -10.8538,0 -19.64912,-10.66666 -19.64912,-23.766078 0,-13.380117 8.79532,-24.140352 19.64912,-24.140352 6.83041,0 12.72515,2.713451 17.21637,9.918129 L 771.62211,64.59649 c -6.73685,-8.140351 -16.18714,-13.192983 -29.75439,-13.192983 -21.7076,0 -37.61404,17.871346 -37.61404,40.046785 0,22.081868 16.84211,39.953218 37.61404,39.953218 15.15789,0 31.4386,-8.32749 35.64912,-27.88304 z"/>
		<path d="m 838.37645,99.029239 h 24.88888 V 130 h 17.59065 V 52.807016 H 863.26533 V 83.590642 H 838.37645 V 52.807016 H 820.7858 V 130 h 17.59065 z"/>
		<path d="M 941.22152,52.807016 H 897.05777 V 130 h 44.16375 v -15.4386 h -26.5731 V 99.029239 h 25.45029 V 83.590642 H 914.64842 V 68.245613 h 26.5731 z"/>
		<path d="M 973.92472,52.807016 H 956.33408 V 130 h 17.59064 z"/>
		<path d="m 1060.0095,86.771929 h -35.6491 v 13.567251 h 17.7778 c 0,9.45029 -8.3275,14.87719 -16.7486,14.87719 -10.8538,0 -19.6491,-10.66666 -19.6491,-23.766078 0,-13.380117 8.7953,-24.140352 19.6491,-24.140352 6.8304,0 12.7252,2.713451 17.2164,9.918129 l 11.5088,-12.631579 c -6.7369,-8.140351 -16.1872,-13.192983 -29.7544,-13.192983 -21.7076,0 -37.61404,17.871346 -37.61404,40.046785 0,22.081868 16.84214,39.953218 37.61404,39.953218 15.1579,0 31.4386,-8.32749 35.6491,-27.88304 z"/>
		<path d="m 1090.2843,99.029239 h 24.8889 V 130 h 17.5907 V 52.807016 h -17.5907 v 30.783626 h -24.8889 V 52.807016 h -17.5906 V 130 h 17.5906 z"/>
		<path d="m 1139.5314,68.245613 h 18.3392 V 130 h 17.5907 V 68.245613 h 18.3392 V 52.807016 h -54.2691 z"/>
		<path d="m 1233.5797,51.403507 c -12.4444,0 -25.1696,9.169591 -25.1696,23.578948 0,8.046784 5.4269,15.251462 14.6901,19.836258 9.1696,4.584795 17.4035,7.111107 17.4035,12.725147 0,7.20468 -7.2982,7.57895 -11.1345,7.57895 -8.6082,0 -18.9006,-8.70176 -18.9006,-8.70176 l -8.7953,14.78363 c 0,0 10.9474,10.19883 29.0058,10.19883 15.0644,0 29.0995,-6.45614 29.0995,-24.88889 0,-10.105264 -9.4503,-17.40351 -18.0585,-21.052632 -8.7953,-3.742691 -16.0936,-6.83041 -16.0936,-11.134504 0,-4.210526 3.1813,-6.923976 9.1696,-6.923976 7.9532,0 15.6257,5.333333 15.6257,5.333333 l 7.1112,-14.035088 c 0,0 -9.9182,-7.298246 -23.9533,-7.298246 z"/>
	</g>
	<g aria-label="EMILY BRONTË">
		<path d="M 445.16777,232.10526 H 412.04496 V 290 h 33.12281 v -11.57895 h -19.92983 v -11.64912 h 19.08772 v -11.57895 h -19.08772 v -11.50877 h 19.92983 z"/>
		<path d="m 505.61184,290 h 13.19299 l -5.19299,-57.89474 h -14.03508 l -12.84211,33.40351 -12.8421,-33.40351 H 459.85746 L 454.66448,290 h 13.19298 l 2.73684,-34.31579 h 0.35088 l 11.85965,33.96491 h 7.85965 l 11.85965,-33.96491 h 0.35087 z"/>
		<path d="M 542.28289,232.10526 H 529.08991 V 290 h 13.19298 z"/>
		<path d="M 568.93859,232.10526 H 555.74561 V 290 h 33.12281 v -11.57895 h -19.92983 z"/>
		<path d="m 588.55812,232.10526 21.33333,31.92983 V 290 h 13.19298 v -25.96491 l 21.33334,-31.92983 h -15.85965 l -12.07018,18.52632 -12.07017,-18.52632 z"/>
		<path d="M 675.73466,232.10526 V 290 h 21.96491 c 12,0 18.94737,-6.59649 18.94737,-16.14035 0,-9.33333 -5.12281,-13.33333 -12.35088,-14.59649 4.91228,-2.52632 7.22807,-7.08772 7.22807,-12.42105 0,-11.01755 -7.85965,-14.73685 -17.82456,-14.73685 z m 13.19298,22.66667 V 242.2807 h 1.05263 c 5.75439,0 8.77193,1.75439 8.77193,5.89474 0,4.8421 -3.08772,6.59649 -8.77193,6.59649 z m 0,25.05263 v -13.68421 h 4.14035 c 6.24561,0 9.68421,1.89474 9.68421,7.22807 0,4.5614 -3.4386,6.45614 -9.68421,6.45614 z"/>
		<path d="M 727.47257,232.10526 V 290 h 13.19298 V 267.12281 L 758.34976,290 h 16.77193 l -19.92982,-23.92982 c 7.08772,-2.24562 11.85965,-8.07018 11.85965,-16.77193 0,-11.36842 -8.14035,-17.19299 -18.87719,-17.19299 z m 13.19298,25.68421 v -15.15789 h 1.54386 c 4.98246,0 10.94737,0.35088 10.94737,7.57895 0,7.22807 -5.96491,7.57894 -10.94737,7.57894 z"/>
		<path d="m 780.17762,261.01754 c 0,16.91228 12.07018,30.03509 29.19299,30.03509 16.63157,0 29.1228,-13.12281 29.1228,-30.03509 0,-16.91228 -13.05263,-29.96491 -29.1228,-29.96491 -15.92983,0 -29.19299,13.05263 -29.19299,29.96491 z m 14.24562,0 c 0,-8.63157 4.77193,-17.26315 14.94737,-17.26315 10.24561,0 14.87719,8.63158 14.87719,17.26315 0,8.63158 -4.35088,17.26316 -14.87719,17.26316 -10.80702,0 -14.94737,-8.63158 -14.94737,-17.26316 z"/>
		<path d="m 862.50766,254.07018 h 0.14035 L 885.66555,290 h 13.19298 v -57.89474 h -13.19298 v 35.92983 H 885.5252 L 862.50766,232.10526 H 849.31467 V 290 h 13.19299 z"/>
		<path d="m 905.216,243.68421 h 13.75438 V 290 h 13.19298 v -46.31579 h 13.75439 V 232.10526 H 905.216 Z"/>
		<path d="m 963.45833,212.59649 c -3.57894,0 -6.45614,2.87719 -6.45614,6.45614 0,3.57895 2.8772,6.45614 6.45614,6.45614 3.57895,0 6.45614,-2.87719 6.45614,-6.45614 0,-3.57895 -2.87719,-6.45614 -6.45614,-6.45614 z m 16.63158,0 c -3.57894,0 -6.45614,2.87719 -6.45614,6.45614 0,3.57895 2.8772,6.45614 6.45614,6.45614 3.57895,0 6.45614,-2.87719 6.45614,-6.45614 0,-3.57895 -2.87719,-6.45614 -6.45614,-6.45614 z m 8.70176,19.50877 H 955.66886 V 290 h 33.12281 v -11.57895 h -19.92983 v -11.64912 h 19.08772 v -11.57895 h -19.08772 v -11.50877 h 19.92983 z"/>
	</g>
</svg>
